<mxfile host="app.diagrams.net" modified="2023-03-12T11:57:10.362Z" agent="5.0 (Windows NT 10.0; Win64; x64) AppleWebKit/537.36 (KHTML, like Gecko) Chrome/110.0.0.0 Safari/537.36" etag="ln-gauEftws1Ld_CaU7g" version="21.0.4" type="github">
  <diagram id="C5RBs43oDa-KdzZeNtuy" name="Page-1">
    <mxGraphModel dx="1495" dy="995" grid="1" gridSize="10" guides="1" tooltips="1" connect="1" arrows="1" fold="1" page="1" pageScale="1" pageWidth="827" pageHeight="1169" math="0" shadow="0">
      <root>
        <mxCell id="WIyWlLk6GJQsqaUBKTNV-0" />
        <mxCell id="WIyWlLk6GJQsqaUBKTNV-1" parent="WIyWlLk6GJQsqaUBKTNV-0" />
        <mxCell id="iZw6KkyHZYlsaDlUffuV-44" value="" style="edgeStyle=orthogonalEdgeStyle;rounded=0;orthogonalLoop=1;jettySize=auto;html=1;" edge="1" parent="WIyWlLk6GJQsqaUBKTNV-1" source="iZw6KkyHZYlsaDlUffuV-0" target="iZw6KkyHZYlsaDlUffuV-2">
          <mxGeometry relative="1" as="geometry" />
        </mxCell>
        <mxCell id="iZw6KkyHZYlsaDlUffuV-0" value="Kullanicinin adi istenecek" style="shape=parallelogram;perimeter=parallelogramPerimeter;whiteSpace=wrap;html=1;fixedSize=1;fillColor=#dae8fc;strokeColor=#6c8ebf;" vertex="1" parent="WIyWlLk6GJQsqaUBKTNV-1">
          <mxGeometry x="347" y="120" width="120" height="60" as="geometry" />
        </mxCell>
        <mxCell id="iZw6KkyHZYlsaDlUffuV-1" value="Kullanicinin&lt;br&gt;&amp;nbsp;soyadi istenecek" style="shape=parallelogram;perimeter=parallelogramPerimeter;whiteSpace=wrap;html=1;fixedSize=1;fillColor=#dae8fc;strokeColor=#6c8ebf;" vertex="1" parent="WIyWlLk6GJQsqaUBKTNV-1">
          <mxGeometry x="351" y="210" width="120" height="60" as="geometry" />
        </mxCell>
        <mxCell id="iZw6KkyHZYlsaDlUffuV-45" value="" style="edgeStyle=orthogonalEdgeStyle;rounded=0;orthogonalLoop=1;jettySize=auto;html=1;" edge="1" parent="WIyWlLk6GJQsqaUBKTNV-1" source="iZw6KkyHZYlsaDlUffuV-2" target="iZw6KkyHZYlsaDlUffuV-11">
          <mxGeometry relative="1" as="geometry" />
        </mxCell>
        <mxCell id="iZw6KkyHZYlsaDlUffuV-2" value="Kullanicidan&lt;br&gt;&amp;nbsp;dersin adi" style="shape=parallelogram;perimeter=parallelogramPerimeter;whiteSpace=wrap;html=1;fixedSize=1;" vertex="1" parent="WIyWlLk6GJQsqaUBKTNV-1">
          <mxGeometry x="349" y="290" width="120" height="60" as="geometry" />
        </mxCell>
        <mxCell id="iZw6KkyHZYlsaDlUffuV-4" value="Kullanicidan &lt;br&gt;dersin &lt;br&gt;Vize notu &lt;br&gt;istenecek" style="shape=parallelogram;perimeter=parallelogramPerimeter;whiteSpace=wrap;html=1;fixedSize=1;" vertex="1" parent="WIyWlLk6GJQsqaUBKTNV-1">
          <mxGeometry x="351" y="370" width="120" height="60" as="geometry" />
        </mxCell>
        <mxCell id="iZw6KkyHZYlsaDlUffuV-46" value="" style="edgeStyle=orthogonalEdgeStyle;rounded=0;orthogonalLoop=1;jettySize=auto;html=1;" edge="1" parent="WIyWlLk6GJQsqaUBKTNV-1" source="iZw6KkyHZYlsaDlUffuV-11" target="iZw6KkyHZYlsaDlUffuV-16">
          <mxGeometry relative="1" as="geometry" />
        </mxCell>
        <mxCell id="iZw6KkyHZYlsaDlUffuV-11" value="Kullanicidan&amp;nbsp;&lt;br&gt;&amp;nbsp;Dersin&amp;nbsp;&lt;br&gt;Final notu &lt;br&gt;istenecek" style="shape=parallelogram;perimeter=parallelogramPerimeter;whiteSpace=wrap;html=1;fixedSize=1;" vertex="1" parent="WIyWlLk6GJQsqaUBKTNV-1">
          <mxGeometry x="351" y="450" width="120" height="60" as="geometry" />
        </mxCell>
        <mxCell id="iZw6KkyHZYlsaDlUffuV-17" style="edgeStyle=orthogonalEdgeStyle;rounded=0;orthogonalLoop=1;jettySize=auto;html=1;" edge="1" parent="WIyWlLk6GJQsqaUBKTNV-1" source="iZw6KkyHZYlsaDlUffuV-16">
          <mxGeometry relative="1" as="geometry">
            <mxPoint x="345.9999999999998" y="779.9999999999998" as="targetPoint" />
          </mxGeometry>
        </mxCell>
        <mxCell id="iZw6KkyHZYlsaDlUffuV-18" style="edgeStyle=orthogonalEdgeStyle;rounded=0;orthogonalLoop=1;jettySize=auto;html=1;" edge="1" parent="WIyWlLk6GJQsqaUBKTNV-1" source="iZw6KkyHZYlsaDlUffuV-16">
          <mxGeometry relative="1" as="geometry">
            <mxPoint x="475.9999999999998" y="779.9999999999998" as="targetPoint" />
          </mxGeometry>
        </mxCell>
        <mxCell id="iZw6KkyHZYlsaDlUffuV-47" style="edgeStyle=orthogonalEdgeStyle;rounded=0;orthogonalLoop=1;jettySize=auto;html=1;exitX=0.006;exitY=0.872;exitDx=0;exitDy=0;exitPerimeter=0;" edge="1" parent="WIyWlLk6GJQsqaUBKTNV-1" source="iZw6KkyHZYlsaDlUffuV-11" target="iZw6KkyHZYlsaDlUffuV-2">
          <mxGeometry relative="1" as="geometry">
            <mxPoint x="240" y="320" as="targetPoint" />
            <Array as="points">
              <mxPoint x="352" y="510" />
              <mxPoint x="240" y="510" />
              <mxPoint x="240" y="320" />
            </Array>
          </mxGeometry>
        </mxCell>
        <mxCell id="iZw6KkyHZYlsaDlUffuV-51" style="edgeStyle=orthogonalEdgeStyle;rounded=0;orthogonalLoop=1;jettySize=auto;html=1;entryX=1;entryY=0.5;entryDx=0;entryDy=0;exitX=1;exitY=1;exitDx=0;exitDy=0;" edge="1" parent="WIyWlLk6GJQsqaUBKTNV-1" source="iZw6KkyHZYlsaDlUffuV-11" target="iZw6KkyHZYlsaDlUffuV-2">
          <mxGeometry relative="1" as="geometry">
            <Array as="points">
              <mxPoint x="454" y="510" />
              <mxPoint x="570" y="510" />
              <mxPoint x="570" y="320" />
            </Array>
          </mxGeometry>
        </mxCell>
        <mxCell id="iZw6KkyHZYlsaDlUffuV-16" value="&amp;nbsp;Notlarin &lt;br&gt;ortalamasi 50 den buyuk olup olmadigi kontrol edilecek" style="rhombus;whiteSpace=wrap;html=1;" vertex="1" parent="WIyWlLk6GJQsqaUBKTNV-1">
          <mxGeometry x="346" y="550" width="130" height="140" as="geometry" />
        </mxCell>
        <mxCell id="iZw6KkyHZYlsaDlUffuV-19" value="&amp;nbsp;Dersten Gectiniz" style="rounded=1;whiteSpace=wrap;html=1;" vertex="1" parent="WIyWlLk6GJQsqaUBKTNV-1">
          <mxGeometry x="306" y="779" width="70" height="50" as="geometry" />
        </mxCell>
        <mxCell id="iZw6KkyHZYlsaDlUffuV-20" value="Dersten Kaldiniz" style="rounded=1;whiteSpace=wrap;html=1;" vertex="1" parent="WIyWlLk6GJQsqaUBKTNV-1">
          <mxGeometry x="446" y="779" width="70" height="50" as="geometry" />
        </mxCell>
        <mxCell id="iZw6KkyHZYlsaDlUffuV-21" value="Evet" style="text;html=1;align=center;verticalAlign=middle;resizable=0;points=[];autosize=1;strokeColor=none;fillColor=none;" vertex="1" parent="WIyWlLk6GJQsqaUBKTNV-1">
          <mxGeometry x="341" y="705" width="50" height="30" as="geometry" />
        </mxCell>
        <mxCell id="iZw6KkyHZYlsaDlUffuV-22" value="Hayir" style="text;html=1;align=center;verticalAlign=middle;resizable=0;points=[];autosize=1;strokeColor=none;fillColor=none;" vertex="1" parent="WIyWlLk6GJQsqaUBKTNV-1">
          <mxGeometry x="426" y="705" width="50" height="30" as="geometry" />
        </mxCell>
        <mxCell id="iZw6KkyHZYlsaDlUffuV-52" value="4 ders icin sorgu" style="text;html=1;align=center;verticalAlign=middle;resizable=0;points=[];autosize=1;strokeColor=none;fillColor=none;" vertex="1" parent="WIyWlLk6GJQsqaUBKTNV-1">
          <mxGeometry x="239" y="475" width="110" height="30" as="geometry" />
        </mxCell>
        <mxCell id="iZw6KkyHZYlsaDlUffuV-53" value="4 ders icin sorgu" style="text;html=1;align=center;verticalAlign=middle;resizable=0;points=[];autosize=1;strokeColor=none;fillColor=none;" vertex="1" parent="WIyWlLk6GJQsqaUBKTNV-1">
          <mxGeometry x="460" y="475" width="110" height="30" as="geometry" />
        </mxCell>
      </root>
    </mxGraphModel>
  </diagram>
</mxfile>
